<svg width="50" height="29" viewBox="0 0 50 29" fill="none" xmlns="http://www.w3.org/2000/svg">
<path d="M35.8025 16.4128H34.5147C34.1099 16.4128 33.7817 16.741 33.7817 17.1458C33.7818 17.5507 34.11 17.8789 34.5147 17.8789H35.8025C36.2074 17.8789 36.5355 17.5507 36.5355 17.1458C36.5355 16.741 36.2074 16.4128 35.8025 16.4128Z" fill="#FF9900"/>
<path d="M49.9977 12.2415C49.9928 12.1181 49.9788 11.9948 49.9549 11.8742L48.3126 3.56289C48.3125 3.5626 48.3124 3.5623 48.3124 3.56201L47.9864 1.9123C47.7675 0.804296 46.7888 6.70109e-09 45.6593 6.70109e-09H2.379C1.06719 -9.76495e-05 0 1.06719 0 2.379V21.9683C0 23.2802 1.06719 24.3473 2.379 24.3473H4.70077C5.05478 26.6547 7.05331 28.4275 9.45809 28.4275C11.8629 28.4275 13.8614 26.6548 14.2154 24.3473H16.1031C16.5079 24.3473 16.8361 24.0192 16.8361 23.6143C16.8361 23.2095 16.508 22.8813 16.1031 22.8813H14.2153C13.8613 20.5741 11.8628 18.8013 9.45799 18.8013C7.05321 18.8013 5.05468 20.574 4.70067 22.8813H2.379C1.87548 22.8813 1.46592 22.4717 1.46592 21.9682V2.379C1.46592 1.87549 1.87548 1.46582 2.379 1.46582H45.6592C46.0906 1.46582 46.4645 1.77305 46.5483 2.19638L46.7015 2.97197H37.0775C36.363 2.97197 35.7818 3.55322 35.7818 4.26767V12.1734C35.7818 12.9172 36.1378 13.6227 36.7342 14.0607C38.1698 15.1154 41.3797 16.4187 48.5339 16.7414V21.6602C48.5339 22.3337 47.986 22.8815 47.3126 22.8815H45.299C44.9449 20.5743 42.9465 18.8015 40.5416 18.8015C38.1368 18.8015 36.1384 20.5742 35.7843 22.8815H19.5137C19.1089 22.8815 18.7807 23.2097 18.7807 23.6145C18.7807 24.0194 19.1089 24.3475 19.5137 24.3475H35.7845C36.1385 26.6549 38.137 28.4277 40.5418 28.4277C42.9467 28.4277 44.9451 26.655 45.2992 24.3475H47.3128C48.7945 24.3475 50 23.1421 50 21.6603V12.3343V12.3342C49.9999 12.3031 49.9988 12.2723 49.9977 12.2415ZM9.45809 20.2674C11.3037 20.2674 12.8052 21.7688 12.8052 23.6144C12.8052 25.46 11.3037 26.9616 9.45809 26.9616C7.61249 26.9616 6.11102 25.46 6.11102 23.6144C6.11102 21.7688 7.61249 20.2674 9.45809 20.2674ZM40.5418 26.9615C38.6962 26.9615 37.1948 25.4599 37.1948 23.6143C37.1948 21.7687 38.6962 20.2673 40.5418 20.2673C42.3874 20.2673 43.889 21.7687 43.889 23.6143C43.8889 25.4599 42.3874 26.9615 40.5418 26.9615ZM37.2478 12.1734V4.43799H46.9911L48.5167 12.1588C48.5194 12.1725 48.5208 12.1866 48.5229 12.2006C48.5289 12.2413 48.5328 12.2824 48.5333 12.3235C48.5333 12.3271 48.5338 12.3307 48.5338 12.3342V15.2739C41.4339 14.9466 38.6431 13.644 37.6022 12.8793C37.3803 12.7163 37.2478 12.4524 37.2478 12.1734Z" fill="#FF9900"/>
<path d="M16.4386 2.97192H4.16904C3.52441 2.97192 3 3.49634 3 4.14097V12.389C3 13.0336 3.52441 13.558 4.16904 13.558H16.4386C17.0832 13.558 17.6076 13.0336 17.6076 12.389V4.14097C17.6076 3.49634 17.0832 2.97192 16.4386 2.97192ZM9.57079 12.0921H4.46592V4.43784H9.57079V12.0921ZM16.1417 12.0921H11.0368V4.43784H16.1417V12.0921Z" fill="#FF9900"/>
<path d="M32.5285 2.97192H20.2589C19.6143 2.97192 19.0898 3.49634 19.0898 4.14097V12.389C19.0898 13.0336 19.6143 13.558 20.2589 13.558H32.5285C33.1731 13.558 33.6975 13.0336 33.6975 12.389V4.14097C33.6975 3.49634 33.1731 2.97192 32.5285 2.97192ZM32.2316 12.0921H27.1266V9.3141C27.1266 8.90922 26.7985 8.58109 26.3936 8.58109C25.9888 8.58109 25.6606 8.90922 25.6606 9.3141V12.0921H20.5558V4.43784H25.6606V5.90346C25.6606 6.30834 25.9888 6.63647 26.3936 6.63647C26.7985 6.63647 27.1266 6.30834 27.1266 5.90346V4.43784H32.2316V12.0921Z" fill="#FF9900"/>
</svg>
