<svg width="50" height="50" viewBox="0 0 50 50" fill="none" xmlns="http://www.w3.org/2000/svg">
<g clip-path="url(#clip0_720_192)">
<path d="M39.256 7.75H9.744C4.23886 7.75 -0.25 12.1194 -0.25 17.5028V33.4972C-0.25 38.8816 4.23888 43.25 9.744 43.25H39.256C44.7611 43.25 49.25 38.8806 49.25 33.4972V17.5028C49.25 12.1194 44.7611 7.75 39.256 7.75ZM46.75 33.4982C46.75 37.5225 43.3937 40.8065 39.256 40.8065H9.744C5.60633 40.8065 2.25 37.5215 2.25 33.4982V17.5028C2.25 13.4795 5.60633 10.1945 9.744 10.1945H39.256C43.3937 10.1945 46.75 13.4795 46.75 17.5028V33.4982Z" fill="#FF9900" stroke="white" stroke-width="0.5"/>
<path d="M19.6431 16.9181L19.6429 16.918C19.2562 16.6969 18.7763 16.6931 18.3854 16.912C17.9942 17.1311 17.75 17.5404 17.75 17.9872V34.0126C17.75 34.4581 17.994 34.8684 18.3841 35.0876L18.3846 35.0879C18.5783 35.1962 18.794 35.25 19.0091 35.25C19.2287 35.25 19.4471 35.1935 19.6427 35.0818L19.6431 35.0816L33.6247 27.0705C33.6247 27.0705 33.6247 27.0705 33.6248 27.0705C34.0097 26.8501 34.25 26.4434 34.25 26.0014C34.25 25.56 34.0113 25.1519 33.6245 24.9312C33.6245 24.9311 33.6244 24.9311 33.6244 24.9311L19.6431 16.9181ZM30.491 26.0003L20.2683 31.8581V20.1408L30.491 26.0003Z" fill="#FF9900" stroke="white" stroke-width="0.5"/>
</g>
<defs>
<clipPath id="clip0_720_192">
<rect width="50" height="50" fill="white"/>
</clipPath>
</defs>
</svg>
